#define minimize2_width 11
#define minimize2_height 11
static unsigned char minimize2_bits[] = {
   0x3f, 0x00, 0x3f, 0x00, 0x3f, 0x00, 0x3f, 0x00, 0x3f, 0x00, 0x3f, 0x00,
   0x00, 0x00, 0x00, 0x00, 0x00, 0x00, 0x00, 0x00, 0x00, 0x00 };
