#define minimize4_width 11
#define minimize4_height 11
static unsigned char minimize4_bits[] = {
   0xc0, 0x07, 0xc0, 0x07, 0xc0, 0x07, 0xc0, 0x07, 0xc0, 0x07, 0x00, 0x00,
   0x00, 0x00, 0x00, 0x00, 0x00, 0x00, 0x00, 0x00, 0x00, 0x00 };
