#define resize_width 11
#define resize_height 11
static unsigned char resize_bits[] = {
   0xdf, 0x07, 0x8f, 0x07, 0x07, 0x07, 0x03, 0x06, 0x01, 0x04, 0x00, 0x00,
   0x01, 0x04, 0x03, 0x06, 0x07, 0x07, 0x8f, 0x07, 0xdf, 0x07 };
