#define resize2_width 11
#define resize2_height 11
static unsigned char resize2_bits[] = {
   0x20, 0x00, 0x70, 0x00, 0xf8, 0x00, 0x04, 0x01, 0x06, 0x03, 0x07, 0x07,
   0x06, 0x03, 0x04, 0x01, 0xf8, 0x00, 0x70, 0x00, 0x20, 0x00 };
