#define resize4_width 11
#define resize4_height 11
static unsigned char resize4_bits[] = {
   0xc0, 0x07, 0xc0, 0x07, 0xc0, 0x07, 0xc0, 0x07, 0xc0, 0x07, 0x00, 0x00,
   0x1f, 0x00, 0x1f, 0x00, 0x1f, 0x00, 0x1f, 0x00, 0x1f, 0x00 };
