#define resize3_width 11
#define resize3_height 11
static unsigned char resize3_bits[] = {
   0x20, 0x00, 0x70, 0x00, 0xf8, 0x00, 0xfc, 0x01, 0x00, 0x00, 0x00, 0x00,
   0x00, 0x00, 0xfc, 0x01, 0xf8, 0x00, 0x70, 0x00, 0x20, 0x00 };
